  0
SECTION
  2
BLOCKS
  0
ENDSEC
  0
SECTION
  2
ENTITIES
  0
LINE
  8
0
 10
33.2725
 20
-34.3776
 11
33.9695
 21
-34.0225
  0
LINE
  8
0
 10
33.9695
 20
-34.0225
 11
34.5225
 21
-33.4695
  0
LINE
  8
0
 10
34.5225
 20
-33.4695
 11
34.8776
 21
-32.7725
  0
LINE
  8
0
 10
34.8776
 20
-32.7725
 11
35
 21
-32
  0
LINE
  8
0
 10
35
 20
-32
 11
35
 21
-23
  0
LINE
  8
0
 10
35
 20
-23
 11
34.8776
 21
-22.2274
  0
LINE
  8
0
 10
34.8776
 20
-22.2274
 11
23.2444
 21
9.20311
  0
LINE
  8
0
 10
23.2444
 20
9.20311
 11
21.9077
 21
12.0438
  0
LINE
  8
0
 10
21.9077
 20
12.0438
 11
20.2254
 21
14.6946
  0
LINE
  8
0
 10
20.2254
 20
14.6946
 11
18.2242
 21
17.1137
  0
LINE
  8
0
 10
18.2242
 20
17.1137
 11
15.9356
 21
19.2628
  0
LINE
  8
0
 10
15.9356
 20
19.2628
 11
13.3957
 21
21.1082
  0
LINE
  8
0
 10
13.3957
 20
21.1082
 11
10.6445
 21
22.6207
  0
LINE
  8
0
 10
10.6445
 20
22.6207
 11
7.72542
 21
23.7764
  0
LINE
  8
0
 10
7.72542
 20
23.7764
 11
4.68452
 21
24.5572
  0
LINE
  8
0
 10
4.68452
 20
24.5572
 11
1.56975
 21
24.9507
  0
LINE
  8
0
 10
1.56975
 20
24.9507
 11
-1.56975
 21
24.9507
  0
LINE
  8
0
 10
-1.56975
 20
24.9507
 11
-4.68452
 21
24.5572
  0
LINE
  8
0
 10
-4.68452
 20
24.5572
 11
-7.72542
 21
23.7764
  0
LINE
  8
0
 10
-7.72542
 20
23.7764
 11
-10.6445
 21
22.6207
  0
LINE
  8
0
 10
-10.6445
 20
22.6207
 11
-13.3957
 21
21.1082
  0
LINE
  8
0
 10
-13.3957
 20
21.1082
 11
-15.9356
 21
19.2628
  0
LINE
  8
0
 10
-15.9356
 20
19.2628
 11
-18.2242
 21
17.1137
  0
LINE
  8
0
 10
-18.2242
 20
17.1137
 11
-20.2254
 21
14.6946
  0
LINE
  8
0
 10
-20.2254
 20
14.6946
 11
-21.9077
 21
12.0438
  0
LINE
  8
0
 10
-21.9077
 20
12.0438
 11
-23.2444
 21
9.20311
  0
LINE
  8
0
 10
-23.2444
 20
9.20311
 11
-34.8776
 21
-22.2274
  0
LINE
  8
0
 10
-34.8776
 20
-22.2274
 11
-35
 21
-23
  0
LINE
  8
0
 10
-35
 20
-23
 11
-35
 21
-32
  0
LINE
  8
0
 10
-35
 20
-32
 11
-34.8776
 21
-32.7725
  0
LINE
  8
0
 10
-34.8776
 20
-32.7725
 11
-34.5225
 21
-33.4695
  0
LINE
  8
0
 10
-34.5225
 20
-33.4695
 11
-33.9695
 21
-34.0225
  0
LINE
  8
0
 10
-33.9695
 20
-34.0225
 11
-33.2725
 21
-34.3776
  0
LINE
  8
0
 10
-33.2725
 20
-34.3776
 11
-32.5
 21
-34.5
  0
LINE
  8
0
 10
-32.5
 20
-34.5
 11
32.5
 21
-34.5
  0
LINE
  8
0
 10
32.5
 20
-34.5
 11
33.2725
 21
-34.3776
  0
LINE
  8
0
 10
-8.12871
 20
5.95404
 11
-8.38412
 21
5.9863
  0
LINE
  8
0
 10
-8.38412
 20
5.9863
 11
-8.63348
 21
6.05032
  0
LINE
  8
0
 10
-8.63348
 20
6.05032
 11
-8.87283
 21
6.1451
  0
LINE
  8
0
 10
-8.87283
 20
6.1451
 11
-9.09843
 21
6.26912
  0
LINE
  8
0
 10
-9.09843
 20
6.26912
 11
-9.30672
 21
6.42044
  0
LINE
  8
0
 10
-9.30672
 20
6.42044
 11
-9.49438
 21
6.59666
  0
LINE
  8
0
 10
-9.49438
 20
6.59666
 11
-9.65848
 21
6.79503
  0
LINE
  8
0
 10
-9.65848
 20
6.79503
 11
-9.79642
 21
7.01239
  0
LINE
  8
0
 10
-9.79642
 20
7.01239
 11
-9.90604
 21
7.24533
  0
LINE
  8
0
 10
-9.90604
 20
7.24533
 11
-9.98558
 21
7.49017
  0
LINE
  8
0
 10
-9.98558
 20
7.49017
 11
-10.0338
 21
7.74306
  0
LINE
  8
0
 10
-10.0338
 20
7.74306
 11
-10.05
 21
8
  0
LINE
  8
0
 10
-10.05
 20
8
 11
-10.0338
 21
8.25693
  0
LINE
  8
0
 10
-10.0338
 20
8.25693
 11
-9.98558
 21
8.50981
  0
LINE
  8
0
 10
-9.98558
 20
8.50981
 11
-9.90604
 21
8.75465
  0
LINE
  8
0
 10
-9.90604
 20
8.75465
 11
-9.79642
 21
8.98759
  0
LINE
  8
0
 10
-9.79642
 20
8.98759
 11
-9.65848
 21
9.20496
  0
LINE
  8
0
 10
-9.65848
 20
9.20496
 11
-9.49438
 21
9.40332
  0
LINE
  8
0
 10
-9.49438
 20
9.40332
 11
-9.30672
 21
9.57954
  0
LINE
  8
0
 10
-9.30672
 20
9.57954
 11
-9.09843
 21
9.73087
  0
LINE
  8
0
 10
-9.09843
 20
9.73087
 11
-8.87283
 21
9.85489
  0
LINE
  8
0
 10
-8.87283
 20
9.85489
 11
-8.63348
 21
9.94966
  0
LINE
  8
0
 10
-8.63348
 20
9.94966
 11
-8.38412
 21
10.0137
  0
LINE
  8
0
 10
-8.38412
 20
10.0137
 11
-8.12871
 21
10.0459
  0
LINE
  8
0
 10
-8.12871
 20
10.0459
 11
-7.87128
 21
10.0459
  0
LINE
  8
0
 10
-7.87128
 20
10.0459
 11
-7.61586
 21
10.0137
  0
LINE
  8
0
 10
-7.61586
 20
10.0137
 11
-7.3665
 21
9.94966
  0
LINE
  8
0
 10
-7.3665
 20
9.94966
 11
-7.12715
 21
9.85489
  0
LINE
  8
0
 10
-7.12715
 20
9.85489
 11
-6.90155
 21
9.73087
  0
LINE
  8
0
 10
-6.90155
 20
9.73087
 11
-6.69327
 21
9.57954
  0
LINE
  8
0
 10
-6.69327
 20
9.57954
 11
-6.5056
 21
9.40332
  0
LINE
  8
0
 10
-6.5056
 20
9.40332
 11
-6.34151
 21
9.20496
  0
LINE
  8
0
 10
-6.34151
 20
9.20496
 11
-6.20357
 21
8.98759
  0
LINE
  8
0
 10
-6.20357
 20
8.98759
 11
-6.09395
 21
8.75465
  0
LINE
  8
0
 10
-6.09395
 20
8.75465
 11
-6.0144
 21
8.50981
  0
LINE
  8
0
 10
-6.0144
 20
8.50981
 11
-5.96616
 21
8.25693
  0
LINE
  8
0
 10
-5.96616
 20
8.25693
 11
-5.95
 21
8
  0
LINE
  8
0
 10
-5.95
 20
8
 11
-5.96616
 21
7.74306
  0
LINE
  8
0
 10
-5.96616
 20
7.74306
 11
-6.0144
 21
7.49017
  0
LINE
  8
0
 10
-6.0144
 20
7.49017
 11
-6.09395
 21
7.24533
  0
LINE
  8
0
 10
-6.09395
 20
7.24533
 11
-6.20357
 21
7.01239
  0
LINE
  8
0
 10
-6.20357
 20
7.01239
 11
-6.34151
 21
6.79503
  0
LINE
  8
0
 10
-6.34151
 20
6.79503
 11
-6.5056
 21
6.59666
  0
LINE
  8
0
 10
-6.5056
 20
6.59666
 11
-6.69327
 21
6.42044
  0
LINE
  8
0
 10
-6.69327
 20
6.42044
 11
-6.90155
 21
6.26912
  0
LINE
  8
0
 10
-6.90155
 20
6.26912
 11
-7.12715
 21
6.1451
  0
LINE
  8
0
 10
-7.12715
 20
6.1451
 11
-7.3665
 21
6.05032
  0
LINE
  8
0
 10
-7.3665
 20
6.05032
 11
-7.61586
 21
5.9863
  0
LINE
  8
0
 10
-7.61586
 20
5.9863
 11
-7.87128
 21
5.95404
  0
LINE
  8
0
 10
-7.87128
 20
5.95404
 11
-8.12871
 21
5.95404
  0
LINE
  8
0
 10
7.87128
 20
5.95404
 11
7.61586
 21
5.9863
  0
LINE
  8
0
 10
7.61586
 20
5.9863
 11
7.3665
 21
6.05032
  0
LINE
  8
0
 10
7.3665
 20
6.05032
 11
7.12715
 21
6.1451
  0
LINE
  8
0
 10
7.12715
 20
6.1451
 11
6.90155
 21
6.26912
  0
LINE
  8
0
 10
6.90155
 20
6.26912
 11
6.69327
 21
6.42044
  0
LINE
  8
0
 10
6.69327
 20
6.42044
 11
6.5056
 21
6.59666
  0
LINE
  8
0
 10
6.5056
 20
6.59666
 11
6.34151
 21
6.79503
  0
LINE
  8
0
 10
6.34151
 20
6.79503
 11
6.20357
 21
7.01239
  0
LINE
  8
0
 10
6.20357
 20
7.01239
 11
6.09395
 21
7.24533
  0
LINE
  8
0
 10
6.09395
 20
7.24533
 11
6.0144
 21
7.49017
  0
LINE
  8
0
 10
6.0144
 20
7.49017
 11
5.96616
 21
7.74306
  0
LINE
  8
0
 10
5.96616
 20
7.74306
 11
5.95
 21
8
  0
LINE
  8
0
 10
5.95
 20
8
 11
5.96616
 21
8.25693
  0
LINE
  8
0
 10
5.96616
 20
8.25693
 11
6.0144
 21
8.50981
  0
LINE
  8
0
 10
6.0144
 20
8.50981
 11
6.09395
 21
8.75465
  0
LINE
  8
0
 10
6.09395
 20
8.75465
 11
6.20357
 21
8.98759
  0
LINE
  8
0
 10
6.20357
 20
8.98759
 11
6.34151
 21
9.20496
  0
LINE
  8
0
 10
6.34151
 20
9.20496
 11
6.5056
 21
9.40332
  0
LINE
  8
0
 10
6.5056
 20
9.40332
 11
6.69327
 21
9.57954
  0
LINE
  8
0
 10
6.69327
 20
9.57954
 11
6.90155
 21
9.73087
  0
LINE
  8
0
 10
6.90155
 20
9.73087
 11
7.12715
 21
9.85489
  0
LINE
  8
0
 10
7.12715
 20
9.85489
 11
7.3665
 21
9.94966
  0
LINE
  8
0
 10
7.3665
 20
9.94966
 11
7.61586
 21
10.0137
  0
LINE
  8
0
 10
7.61586
 20
10.0137
 11
7.87128
 21
10.0459
  0
LINE
  8
0
 10
7.87128
 20
10.0459
 11
8.12871
 21
10.0459
  0
LINE
  8
0
 10
8.12871
 20
10.0459
 11
8.38412
 21
10.0137
  0
LINE
  8
0
 10
8.38412
 20
10.0137
 11
8.63348
 21
9.94966
  0
LINE
  8
0
 10
8.63348
 20
9.94966
 11
8.87283
 21
9.85489
  0
LINE
  8
0
 10
8.87283
 20
9.85489
 11
9.09843
 21
9.73087
  0
LINE
  8
0
 10
9.09843
 20
9.73087
 11
9.30672
 21
9.57954
  0
LINE
  8
0
 10
9.30672
 20
9.57954
 11
9.49438
 21
9.40332
  0
LINE
  8
0
 10
9.49438
 20
9.40332
 11
9.65848
 21
9.20496
  0
LINE
  8
0
 10
9.65848
 20
9.20496
 11
9.79642
 21
8.98759
  0
LINE
  8
0
 10
9.79642
 20
8.98759
 11
9.90604
 21
8.75465
  0
LINE
  8
0
 10
9.90604
 20
8.75465
 11
9.98558
 21
8.50981
  0
LINE
  8
0
 10
9.98558
 20
8.50981
 11
10.0338
 21
8.25693
  0
LINE
  8
0
 10
10.0338
 20
8.25693
 11
10.05
 21
8
  0
LINE
  8
0
 10
10.05
 20
8
 11
10.0338
 21
7.74306
  0
LINE
  8
0
 10
10.0338
 20
7.74306
 11
9.98558
 21
7.49017
  0
LINE
  8
0
 10
9.98558
 20
7.49017
 11
9.90604
 21
7.24533
  0
LINE
  8
0
 10
9.90604
 20
7.24533
 11
9.79642
 21
7.01239
  0
LINE
  8
0
 10
9.79642
 20
7.01239
 11
9.65848
 21
6.79503
  0
LINE
  8
0
 10
9.65848
 20
6.79503
 11
9.49438
 21
6.59666
  0
LINE
  8
0
 10
9.49438
 20
6.59666
 11
9.30672
 21
6.42044
  0
LINE
  8
0
 10
9.30672
 20
6.42044
 11
9.09843
 21
6.26912
  0
LINE
  8
0
 10
9.09843
 20
6.26912
 11
8.87283
 21
6.1451
  0
LINE
  8
0
 10
8.87283
 20
6.1451
 11
8.63348
 21
6.05032
  0
LINE
  8
0
 10
8.63348
 20
6.05032
 11
8.38412
 21
5.9863
  0
LINE
  8
0
 10
8.38412
 20
5.9863
 11
8.12871
 21
5.95404
  0
LINE
  8
0
 10
8.12871
 20
5.95404
 11
7.87128
 21
5.95404
  0
LINE
  8
0
 10
-0.31395
 20
-4.99013
 11
-0.936905
 21
-4.91142
  0
LINE
  8
0
 10
-0.936905
 20
-4.91142
 11
-1.54507
 21
-4.75528
  0
LINE
  8
0
 10
-1.54507
 20
-4.75528
 11
-2.12889
 21
-4.52412
  0
LINE
  8
0
 10
-2.12889
 20
-4.52412
 11
-2.67912
 21
-4.22163
  0
LINE
  8
0
 10
-2.67912
 20
-4.22163
 11
-3.18712
 21
-3.85255
  0
LINE
  8
0
 10
-3.18712
 20
-3.85255
 11
-3.64484
 21
-3.42273
  0
LINE
  8
0
 10
-3.64484
 20
-3.42273
 11
-4.04507
 21
-2.93892
  0
LINE
  8
0
 10
-4.04507
 20
-2.93892
 11
-4.38153
 21
-2.40877
  0
LINE
  8
0
 10
-4.38153
 20
-2.40877
 11
-4.64888
 21
-1.84062
  0
LINE
  8
0
 10
-4.64888
 20
-1.84062
 11
-4.84291
 21
-1.24344
  0
LINE
  8
0
 10
-4.84291
 20
-1.24344
 11
-4.96057
 21
-0.626663
  0
LINE
  8
0
 10
-4.96057
 20
-0.626663
 11
-5
 21
0
  0
LINE
  8
0
 10
-5
 20
0
 11
-4.96057
 21
0.626663
  0
LINE
  8
0
 10
-4.96057
 20
0.626663
 11
-4.84291
 21
1.24344
  0
LINE
  8
0
 10
-4.84291
 20
1.24344
 11
-4.64888
 21
1.84062
  0
LINE
  8
0
 10
-4.64888
 20
1.84062
 11
-4.38153
 21
2.40877
  0
LINE
  8
0
 10
-4.38153
 20
2.40877
 11
-4.04507
 21
2.93892
  0
LINE
  8
0
 10
-4.04507
 20
2.93892
 11
-3.64484
 21
3.42273
  0
LINE
  8
0
 10
-3.64484
 20
3.42273
 11
-3.18712
 21
3.85255
  0
LINE
  8
0
 10
-3.18712
 20
3.85255
 11
-2.67912
 21
4.22163
  0
LINE
  8
0
 10
-2.67912
 20
4.22163
 11
-2.12889
 21
4.52412
  0
LINE
  8
0
 10
-2.12889
 20
4.52412
 11
-1.54507
 21
4.75528
  0
LINE
  8
0
 10
-1.54507
 20
4.75528
 11
-0.936905
 21
4.91142
  0
LINE
  8
0
 10
-0.936905
 20
4.91142
 11
-0.31395
 21
4.99013
  0
LINE
  8
0
 10
-0.31395
 20
4.99013
 11
0.31395
 21
4.99013
  0
LINE
  8
0
 10
0.31395
 20
4.99013
 11
0.936905
 21
4.91142
  0
LINE
  8
0
 10
0.936905
 20
4.91142
 11
1.54507
 21
4.75528
  0
LINE
  8
0
 10
1.54507
 20
4.75528
 11
2.12889
 21
4.52412
  0
LINE
  8
0
 10
2.12889
 20
4.52412
 11
2.67912
 21
4.22163
  0
LINE
  8
0
 10
2.67912
 20
4.22163
 11
3.18712
 21
3.85255
  0
LINE
  8
0
 10
3.18712
 20
3.85255
 11
3.64484
 21
3.42273
  0
LINE
  8
0
 10
3.64484
 20
3.42273
 11
4.04507
 21
2.93892
  0
LINE
  8
0
 10
4.04507
 20
2.93892
 11
4.38153
 21
2.40877
  0
LINE
  8
0
 10
4.38153
 20
2.40877
 11
4.64888
 21
1.84062
  0
LINE
  8
0
 10
4.64888
 20
1.84062
 11
4.84291
 21
1.24344
  0
LINE
  8
0
 10
4.84291
 20
1.24344
 11
4.96057
 21
0.626663
  0
LINE
  8
0
 10
4.96057
 20
0.626663
 11
5
 21
0
  0
LINE
  8
0
 10
5
 20
0
 11
4.96057
 21
-0.626663
  0
LINE
  8
0
 10
4.96057
 20
-0.626663
 11
4.84291
 21
-1.24344
  0
LINE
  8
0
 10
4.84291
 20
-1.24344
 11
4.64888
 21
-1.84062
  0
LINE
  8
0
 10
4.64888
 20
-1.84062
 11
4.38153
 21
-2.40877
  0
LINE
  8
0
 10
4.38153
 20
-2.40877
 11
4.04507
 21
-2.93892
  0
LINE
  8
0
 10
4.04507
 20
-2.93892
 11
3.64484
 21
-3.42273
  0
LINE
  8
0
 10
3.64484
 20
-3.42273
 11
3.18712
 21
-3.85255
  0
LINE
  8
0
 10
3.18712
 20
-3.85255
 11
2.67912
 21
-4.22163
  0
LINE
  8
0
 10
2.67912
 20
-4.22163
 11
2.12889
 21
-4.52412
  0
LINE
  8
0
 10
2.12889
 20
-4.52412
 11
1.54507
 21
-4.75528
  0
LINE
  8
0
 10
1.54507
 20
-4.75528
 11
0.936905
 21
-4.91142
  0
LINE
  8
0
 10
0.936905
 20
-4.91142
 11
0.31395
 21
-4.99013
  0
LINE
  8
0
 10
0.31395
 20
-4.99013
 11
-0.31395
 21
-4.99013
  0
LINE
  8
0
 10
7.87128
 20
-10.0459
 11
7.61586
 21
-10.0137
  0
LINE
  8
0
 10
7.61586
 20
-10.0137
 11
7.3665
 21
-9.94966
  0
LINE
  8
0
 10
7.3665
 20
-9.94966
 11
7.12715
 21
-9.85489
  0
LINE
  8
0
 10
7.12715
 20
-9.85489
 11
6.90155
 21
-9.73087
  0
LINE
  8
0
 10
6.90155
 20
-9.73087
 11
6.69327
 21
-9.57954
  0
LINE
  8
0
 10
6.69327
 20
-9.57954
 11
6.5056
 21
-9.40332
  0
LINE
  8
0
 10
6.5056
 20
-9.40332
 11
6.34151
 21
-9.20496
  0
LINE
  8
0
 10
6.34151
 20
-9.20496
 11
6.20357
 21
-8.98759
  0
LINE
  8
0
 10
6.20357
 20
-8.98759
 11
6.09395
 21
-8.75465
  0
LINE
  8
0
 10
6.09395
 20
-8.75465
 11
6.0144
 21
-8.50981
  0
LINE
  8
0
 10
6.0144
 20
-8.50981
 11
5.96616
 21
-8.25693
  0
LINE
  8
0
 10
5.96616
 20
-8.25693
 11
5.95
 21
-8
  0
LINE
  8
0
 10
5.95
 20
-8
 11
5.96616
 21
-7.74306
  0
LINE
  8
0
 10
5.96616
 20
-7.74306
 11
6.0144
 21
-7.49017
  0
LINE
  8
0
 10
6.0144
 20
-7.49017
 11
6.09395
 21
-7.24533
  0
LINE
  8
0
 10
6.09395
 20
-7.24533
 11
6.20357
 21
-7.01239
  0
LINE
  8
0
 10
6.20357
 20
-7.01239
 11
6.34151
 21
-6.79503
  0
LINE
  8
0
 10
6.34151
 20
-6.79503
 11
6.5056
 21
-6.59666
  0
LINE
  8
0
 10
6.5056
 20
-6.59666
 11
6.69327
 21
-6.42044
  0
LINE
  8
0
 10
6.69327
 20
-6.42044
 11
6.90155
 21
-6.26912
  0
LINE
  8
0
 10
6.90155
 20
-6.26912
 11
7.12715
 21
-6.1451
  0
LINE
  8
0
 10
7.12715
 20
-6.1451
 11
7.3665
 21
-6.05032
  0
LINE
  8
0
 10
7.3665
 20
-6.05032
 11
7.61586
 21
-5.9863
  0
LINE
  8
0
 10
7.61586
 20
-5.9863
 11
7.87128
 21
-5.95404
  0
LINE
  8
0
 10
7.87128
 20
-5.95404
 11
8.12871
 21
-5.95404
  0
LINE
  8
0
 10
8.12871
 20
-5.95404
 11
8.38412
 21
-5.9863
  0
LINE
  8
0
 10
8.38412
 20
-5.9863
 11
8.63348
 21
-6.05032
  0
LINE
  8
0
 10
8.63348
 20
-6.05032
 11
8.87283
 21
-6.1451
  0
LINE
  8
0
 10
8.87283
 20
-6.1451
 11
9.09843
 21
-6.26912
  0
LINE
  8
0
 10
9.09843
 20
-6.26912
 11
9.30672
 21
-6.42044
  0
LINE
  8
0
 10
9.30672
 20
-6.42044
 11
9.49438
 21
-6.59666
  0
LINE
  8
0
 10
9.49438
 20
-6.59666
 11
9.65848
 21
-6.79503
  0
LINE
  8
0
 10
9.65848
 20
-6.79503
 11
9.79642
 21
-7.01239
  0
LINE
  8
0
 10
9.79642
 20
-7.01239
 11
9.90604
 21
-7.24533
  0
LINE
  8
0
 10
9.90604
 20
-7.24533
 11
9.98558
 21
-7.49017
  0
LINE
  8
0
 10
9.98558
 20
-7.49017
 11
10.0338
 21
-7.74306
  0
LINE
  8
0
 10
10.0338
 20
-7.74306
 11
10.05
 21
-8
  0
LINE
  8
0
 10
10.05
 20
-8
 11
10.0338
 21
-8.25693
  0
LINE
  8
0
 10
10.0338
 20
-8.25693
 11
9.98558
 21
-8.50981
  0
LINE
  8
0
 10
9.98558
 20
-8.50981
 11
9.90604
 21
-8.75465
  0
LINE
  8
0
 10
9.90604
 20
-8.75465
 11
9.79642
 21
-8.98759
  0
LINE
  8
0
 10
9.79642
 20
-8.98759
 11
9.65848
 21
-9.20496
  0
LINE
  8
0
 10
9.65848
 20
-9.20496
 11
9.49438
 21
-9.40332
  0
LINE
  8
0
 10
9.49438
 20
-9.40332
 11
9.30672
 21
-9.57954
  0
LINE
  8
0
 10
9.30672
 20
-9.57954
 11
9.09843
 21
-9.73087
  0
LINE
  8
0
 10
9.09843
 20
-9.73087
 11
8.87283
 21
-9.85489
  0
LINE
  8
0
 10
8.87283
 20
-9.85489
 11
8.63348
 21
-9.94966
  0
LINE
  8
0
 10
8.63348
 20
-9.94966
 11
8.38412
 21
-10.0137
  0
LINE
  8
0
 10
8.38412
 20
-10.0137
 11
8.12871
 21
-10.0459
  0
LINE
  8
0
 10
8.12871
 20
-10.0459
 11
7.87128
 21
-10.0459
  0
LINE
  8
0
 10
-8.12871
 20
-10.0459
 11
-8.38412
 21
-10.0137
  0
LINE
  8
0
 10
-8.38412
 20
-10.0137
 11
-8.63348
 21
-9.94966
  0
LINE
  8
0
 10
-8.63348
 20
-9.94966
 11
-8.87283
 21
-9.85489
  0
LINE
  8
0
 10
-8.87283
 20
-9.85489
 11
-9.09843
 21
-9.73087
  0
LINE
  8
0
 10
-9.09843
 20
-9.73087
 11
-9.30672
 21
-9.57954
  0
LINE
  8
0
 10
-9.30672
 20
-9.57954
 11
-9.49438
 21
-9.40332
  0
LINE
  8
0
 10
-9.49438
 20
-9.40332
 11
-9.65848
 21
-9.20496
  0
LINE
  8
0
 10
-9.65848
 20
-9.20496
 11
-9.79642
 21
-8.98759
  0
LINE
  8
0
 10
-9.79642
 20
-8.98759
 11
-9.90604
 21
-8.75465
  0
LINE
  8
0
 10
-9.90604
 20
-8.75465
 11
-9.98558
 21
-8.50981
  0
LINE
  8
0
 10
-9.98558
 20
-8.50981
 11
-10.0338
 21
-8.25693
  0
LINE
  8
0
 10
-10.0338
 20
-8.25693
 11
-10.05
 21
-8
  0
LINE
  8
0
 10
-10.05
 20
-8
 11
-10.0338
 21
-7.74306
  0
LINE
  8
0
 10
-10.0338
 20
-7.74306
 11
-9.98558
 21
-7.49017
  0
LINE
  8
0
 10
-9.98558
 20
-7.49017
 11
-9.90604
 21
-7.24533
  0
LINE
  8
0
 10
-9.90604
 20
-7.24533
 11
-9.79642
 21
-7.01239
  0
LINE
  8
0
 10
-9.79642
 20
-7.01239
 11
-9.65848
 21
-6.79503
  0
LINE
  8
0
 10
-9.65848
 20
-6.79503
 11
-9.49438
 21
-6.59666
  0
LINE
  8
0
 10
-9.49438
 20
-6.59666
 11
-9.30672
 21
-6.42044
  0
LINE
  8
0
 10
-9.30672
 20
-6.42044
 11
-9.09843
 21
-6.26912
  0
LINE
  8
0
 10
-9.09843
 20
-6.26912
 11
-8.87283
 21
-6.1451
  0
LINE
  8
0
 10
-8.87283
 20
-6.1451
 11
-8.63348
 21
-6.05032
  0
LINE
  8
0
 10
-8.63348
 20
-6.05032
 11
-8.38412
 21
-5.9863
  0
LINE
  8
0
 10
-8.38412
 20
-5.9863
 11
-8.12871
 21
-5.95404
  0
LINE
  8
0
 10
-8.12871
 20
-5.95404
 11
-7.87128
 21
-5.95404
  0
LINE
  8
0
 10
-7.87128
 20
-5.95404
 11
-7.61586
 21
-5.9863
  0
LINE
  8
0
 10
-7.61586
 20
-5.9863
 11
-7.3665
 21
-6.05032
  0
LINE
  8
0
 10
-7.3665
 20
-6.05032
 11
-7.12715
 21
-6.1451
  0
LINE
  8
0
 10
-7.12715
 20
-6.1451
 11
-6.90155
 21
-6.26912
  0
LINE
  8
0
 10
-6.90155
 20
-6.26912
 11
-6.69327
 21
-6.42044
  0
LINE
  8
0
 10
-6.69327
 20
-6.42044
 11
-6.5056
 21
-6.59666
  0
LINE
  8
0
 10
-6.5056
 20
-6.59666
 11
-6.34151
 21
-6.79503
  0
LINE
  8
0
 10
-6.34151
 20
-6.79503
 11
-6.20357
 21
-7.01239
  0
LINE
  8
0
 10
-6.20357
 20
-7.01239
 11
-6.09395
 21
-7.24533
  0
LINE
  8
0
 10
-6.09395
 20
-7.24533
 11
-6.0144
 21
-7.49017
  0
LINE
  8
0
 10
-6.0144
 20
-7.49017
 11
-5.96616
 21
-7.74306
  0
LINE
  8
0
 10
-5.96616
 20
-7.74306
 11
-5.95
 21
-8
  0
LINE
  8
0
 10
-5.95
 20
-8
 11
-5.96616
 21
-8.25693
  0
LINE
  8
0
 10
-5.96616
 20
-8.25693
 11
-6.0144
 21
-8.50981
  0
LINE
  8
0
 10
-6.0144
 20
-8.50981
 11
-6.09395
 21
-8.75465
  0
LINE
  8
0
 10
-6.09395
 20
-8.75465
 11
-6.20357
 21
-8.98759
  0
LINE
  8
0
 10
-6.20357
 20
-8.98759
 11
-6.34151
 21
-9.20496
  0
LINE
  8
0
 10
-6.34151
 20
-9.20496
 11
-6.5056
 21
-9.40332
  0
LINE
  8
0
 10
-6.5056
 20
-9.40332
 11
-6.69327
 21
-9.57954
  0
LINE
  8
0
 10
-6.69327
 20
-9.57954
 11
-6.90155
 21
-9.73087
  0
LINE
  8
0
 10
-6.90155
 20
-9.73087
 11
-7.12715
 21
-9.85489
  0
LINE
  8
0
 10
-7.12715
 20
-9.85489
 11
-7.3665
 21
-9.94966
  0
LINE
  8
0
 10
-7.3665
 20
-9.94966
 11
-7.61586
 21
-10.0137
  0
LINE
  8
0
 10
-7.61586
 20
-10.0137
 11
-7.87128
 21
-10.0459
  0
LINE
  8
0
 10
-7.87128
 20
-10.0459
 11
-8.12871
 21
-10.0459
  0
LINE
  8
0
 10
-22.0973
 20
-15.5469
 11
-22.2904
 21
-15.5225
  0
LINE
  8
0
 10
-22.2904
 20
-15.5225
 11
-22.479
 21
-15.4741
  0
LINE
  8
0
 10
-22.479
 20
-15.4741
 11
-22.66
 21
-15.4025
  0
LINE
  8
0
 10
-22.66
 20
-15.4025
 11
-22.8305
 21
-15.3087
  0
LINE
  8
0
 10
-22.8305
 20
-15.3087
 11
-22.988
 21
-15.1943
  0
LINE
  8
0
 10
-22.988
 20
-15.1943
 11
-23.1299
 21
-15.061
  0
LINE
  8
0
 10
-23.1299
 20
-15.061
 11
-23.254
 21
-14.9111
  0
LINE
  8
0
 10
-23.254
 20
-14.9111
 11
-23.3583
 21
-14.7467
  0
LINE
  8
0
 10
-23.3583
 20
-14.7467
 11
-23.4411
 21
-14.5706
  0
LINE
  8
0
 10
-23.4411
 20
-14.5706
 11
-23.5013
 21
-14.3855
  0
LINE
  8
0
 10
-23.5013
 20
-14.3855
 11
-23.5378
 21
-14.1943
  0
LINE
  8
0
 10
-23.5378
 20
-14.1943
 11
-23.55
 21
-14
  0
LINE
  8
0
 10
-23.55
 20
-14
 11
-23.5378
 21
-13.8057
  0
LINE
  8
0
 10
-23.5378
 20
-13.8057
 11
-23.5013
 21
-13.6145
  0
LINE
  8
0
 10
-23.5013
 20
-13.6145
 11
-23.4411
 21
-13.4294
  0
LINE
  8
0
 10
-23.4411
 20
-13.4294
 11
-23.3583
 21
-13.2533
  0
LINE
  8
0
 10
-23.3583
 20
-13.2533
 11
-23.254
 21
-13.0889
  0
LINE
  8
0
 10
-23.254
 20
-13.0889
 11
-23.1299
 21
-12.9389
  0
LINE
  8
0
 10
-23.1299
 20
-12.9389
 11
-22.988
 21
-12.8057
  0
LINE
  8
0
 10
-22.988
 20
-12.8057
 11
-22.8305
 21
-12.6913
  0
LINE
  8
0
 10
-22.8305
 20
-12.6913
 11
-22.66
 21
-12.5975
  0
LINE
  8
0
 10
-22.66
 20
-12.5975
 11
-22.479
 21
-12.5258
  0
LINE
  8
0
 10
-22.479
 20
-12.5258
 11
-22.2904
 21
-12.4774
  0
LINE
  8
0
 10
-22.2904
 20
-12.4774
 11
-22.0973
 21
-12.453
  0
LINE
  8
0
 10
-22.0973
 20
-12.453
 11
-21.9027
 21
-12.453
  0
LINE
  8
0
 10
-21.9027
 20
-12.453
 11
-21.7095
 21
-12.4774
  0
LINE
  8
0
 10
-21.7095
 20
-12.4774
 11
-21.521
 21
-12.5258
  0
LINE
  8
0
 10
-21.521
 20
-12.5258
 11
-21.34
 21
-12.5975
  0
LINE
  8
0
 10
-21.34
 20
-12.5975
 11
-21.1695
 21
-12.6913
  0
LINE
  8
0
 10
-21.1695
 20
-12.6913
 11
-21.012
 21
-12.8057
  0
LINE
  8
0
 10
-21.012
 20
-12.8057
 11
-20.8701
 21
-12.9389
  0
LINE
  8
0
 10
-20.8701
 20
-12.9389
 11
-20.746
 21
-13.0889
  0
LINE
  8
0
 10
-20.746
 20
-13.0889
 11
-20.6417
 21
-13.2533
  0
LINE
  8
0
 10
-20.6417
 20
-13.2533
 11
-20.5588
 21
-13.4294
  0
LINE
  8
0
 10
-20.5588
 20
-13.4294
 11
-20.4987
 21
-13.6145
  0
LINE
  8
0
 10
-20.4987
 20
-13.6145
 11
-20.4622
 21
-13.8057
  0
LINE
  8
0
 10
-20.4622
 20
-13.8057
 11
-20.45
 21
-14
  0
LINE
  8
0
 10
-20.45
 20
-14
 11
-20.4622
 21
-14.1943
  0
LINE
  8
0
 10
-20.4622
 20
-14.1943
 11
-20.4987
 21
-14.3855
  0
LINE
  8
0
 10
-20.4987
 20
-14.3855
 11
-20.5588
 21
-14.5706
  0
LINE
  8
0
 10
-20.5588
 20
-14.5706
 11
-20.6417
 21
-14.7467
  0
LINE
  8
0
 10
-20.6417
 20
-14.7467
 11
-20.746
 21
-14.9111
  0
LINE
  8
0
 10
-20.746
 20
-14.9111
 11
-20.8701
 21
-15.061
  0
LINE
  8
0
 10
-20.8701
 20
-15.061
 11
-21.012
 21
-15.1943
  0
LINE
  8
0
 10
-21.012
 20
-15.1943
 11
-21.1695
 21
-15.3087
  0
LINE
  8
0
 10
-21.1695
 20
-15.3087
 11
-21.34
 21
-15.4025
  0
LINE
  8
0
 10
-21.34
 20
-15.4025
 11
-21.521
 21
-15.4741
  0
LINE
  8
0
 10
-21.521
 20
-15.4741
 11
-21.7095
 21
-15.5225
  0
LINE
  8
0
 10
-21.7095
 20
-15.5225
 11
-21.9027
 21
-15.5469
  0
LINE
  8
0
 10
-21.9027
 20
-15.5469
 11
-22.0973
 21
-15.5469
  0
LINE
  8
0
 10
21.9027
 20
-15.5469
 11
21.7095
 21
-15.5225
  0
LINE
  8
0
 10
21.7095
 20
-15.5225
 11
21.521
 21
-15.4741
  0
LINE
  8
0
 10
21.521
 20
-15.4741
 11
21.34
 21
-15.4025
  0
LINE
  8
0
 10
21.34
 20
-15.4025
 11
21.1695
 21
-15.3087
  0
LINE
  8
0
 10
21.1695
 20
-15.3087
 11
21.012
 21
-15.1943
  0
LINE
  8
0
 10
21.012
 20
-15.1943
 11
20.8701
 21
-15.061
  0
LINE
  8
0
 10
20.8701
 20
-15.061
 11
20.746
 21
-14.9111
  0
LINE
  8
0
 10
20.746
 20
-14.9111
 11
20.6417
 21
-14.7467
  0
LINE
  8
0
 10
20.6417
 20
-14.7467
 11
20.5588
 21
-14.5706
  0
LINE
  8
0
 10
20.5588
 20
-14.5706
 11
20.4987
 21
-14.3855
  0
LINE
  8
0
 10
20.4987
 20
-14.3855
 11
20.4622
 21
-14.1943
  0
LINE
  8
0
 10
20.4622
 20
-14.1943
 11
20.45
 21
-14
  0
LINE
  8
0
 10
20.45
 20
-14
 11
20.4622
 21
-13.8057
  0
LINE
  8
0
 10
20.4622
 20
-13.8057
 11
20.4987
 21
-13.6145
  0
LINE
  8
0
 10
20.4987
 20
-13.6145
 11
20.5588
 21
-13.4294
  0
LINE
  8
0
 10
20.5588
 20
-13.4294
 11
20.6417
 21
-13.2533
  0
LINE
  8
0
 10
20.6417
 20
-13.2533
 11
20.746
 21
-13.0889
  0
LINE
  8
0
 10
20.746
 20
-13.0889
 11
20.8701
 21
-12.9389
  0
LINE
  8
0
 10
20.8701
 20
-12.9389
 11
21.012
 21
-12.8057
  0
LINE
  8
0
 10
21.012
 20
-12.8057
 11
21.1695
 21
-12.6913
  0
LINE
  8
0
 10
21.1695
 20
-12.6913
 11
21.34
 21
-12.5975
  0
LINE
  8
0
 10
21.34
 20
-12.5975
 11
21.521
 21
-12.5258
  0
LINE
  8
0
 10
21.521
 20
-12.5258
 11
21.7095
 21
-12.4774
  0
LINE
  8
0
 10
21.7095
 20
-12.4774
 11
21.9027
 21
-12.453
  0
LINE
  8
0
 10
21.9027
 20
-12.453
 11
22.0973
 21
-12.453
  0
LINE
  8
0
 10
22.0973
 20
-12.453
 11
22.2904
 21
-12.4774
  0
LINE
  8
0
 10
22.2904
 20
-12.4774
 11
22.479
 21
-12.5258
  0
LINE
  8
0
 10
22.479
 20
-12.5258
 11
22.66
 21
-12.5975
  0
LINE
  8
0
 10
22.66
 20
-12.5975
 11
22.8305
 21
-12.6913
  0
LINE
  8
0
 10
22.8305
 20
-12.6913
 11
22.988
 21
-12.8057
  0
LINE
  8
0
 10
22.988
 20
-12.8057
 11
23.1299
 21
-12.9389
  0
LINE
  8
0
 10
23.1299
 20
-12.9389
 11
23.254
 21
-13.0889
  0
LINE
  8
0
 10
23.254
 20
-13.0889
 11
23.3583
 21
-13.2533
  0
LINE
  8
0
 10
23.3583
 20
-13.2533
 11
23.4411
 21
-13.4294
  0
LINE
  8
0
 10
23.4411
 20
-13.4294
 11
23.5013
 21
-13.6145
  0
LINE
  8
0
 10
23.5013
 20
-13.6145
 11
23.5378
 21
-13.8057
  0
LINE
  8
0
 10
23.5378
 20
-13.8057
 11
23.55
 21
-14
  0
LINE
  8
0
 10
23.55
 20
-14
 11
23.5378
 21
-14.1943
  0
LINE
  8
0
 10
23.5378
 20
-14.1943
 11
23.5013
 21
-14.3855
  0
LINE
  8
0
 10
23.5013
 20
-14.3855
 11
23.4411
 21
-14.5706
  0
LINE
  8
0
 10
23.4411
 20
-14.5706
 11
23.3583
 21
-14.7467
  0
LINE
  8
0
 10
23.3583
 20
-14.7467
 11
23.254
 21
-14.9111
  0
LINE
  8
0
 10
23.254
 20
-14.9111
 11
23.1299
 21
-15.061
  0
LINE
  8
0
 10
23.1299
 20
-15.061
 11
22.988
 21
-15.1943
  0
LINE
  8
0
 10
22.988
 20
-15.1943
 11
22.8305
 21
-15.3087
  0
LINE
  8
0
 10
22.8305
 20
-15.3087
 11
22.66
 21
-15.4025
  0
LINE
  8
0
 10
22.66
 20
-15.4025
 11
22.479
 21
-15.4741
  0
LINE
  8
0
 10
22.479
 20
-15.4741
 11
22.2904
 21
-15.5225
  0
LINE
  8
0
 10
22.2904
 20
-15.5225
 11
22.0973
 21
-15.5469
  0
LINE
  8
0
 10
22.0973
 20
-15.5469
 11
21.9027
 21
-15.5469
  0
LINE
  8
0
 10
23.9027
 20
-29.0469
 11
23.7095
 21
-29.0225
  0
LINE
  8
0
 10
23.7095
 20
-29.0225
 11
23.521
 21
-28.9741
  0
LINE
  8
0
 10
23.521
 20
-28.9741
 11
23.34
 21
-28.9025
  0
LINE
  8
0
 10
23.34
 20
-28.9025
 11
23.1695
 21
-28.8087
  0
LINE
  8
0
 10
23.1695
 20
-28.8087
 11
23.012
 21
-28.6943
  0
LINE
  8
0
 10
23.012
 20
-28.6943
 11
22.8701
 21
-28.561
  0
LINE
  8
0
 10
22.8701
 20
-28.561
 11
22.746
 21
-28.4111
  0
LINE
  8
0
 10
22.746
 20
-28.4111
 11
22.6417
 21
-28.2467
  0
LINE
  8
0
 10
22.6417
 20
-28.2467
 11
22.5588
 21
-28.0706
  0
LINE
  8
0
 10
22.5588
 20
-28.0706
 11
22.4987
 21
-27.8855
  0
LINE
  8
0
 10
22.4987
 20
-27.8855
 11
22.4622
 21
-27.6943
  0
LINE
  8
0
 10
22.4622
 20
-27.6943
 11
22.45
 21
-27.5
  0
LINE
  8
0
 10
22.45
 20
-27.5
 11
22.4622
 21
-27.3057
  0
LINE
  8
0
 10
22.4622
 20
-27.3057
 11
22.4987
 21
-27.1145
  0
LINE
  8
0
 10
22.4987
 20
-27.1145
 11
22.5588
 21
-26.9294
  0
LINE
  8
0
 10
22.5588
 20
-26.9294
 11
22.6417
 21
-26.7533
  0
LINE
  8
0
 10
22.6417
 20
-26.7533
 11
22.746
 21
-26.5889
  0
LINE
  8
0
 10
22.746
 20
-26.5889
 11
22.8701
 21
-26.4389
  0
LINE
  8
0
 10
22.8701
 20
-26.4389
 11
23.012
 21
-26.3057
  0
LINE
  8
0
 10
23.012
 20
-26.3057
 11
23.1695
 21
-26.1913
  0
LINE
  8
0
 10
23.1695
 20
-26.1913
 11
23.34
 21
-26.0975
  0
LINE
  8
0
 10
23.34
 20
-26.0975
 11
23.521
 21
-26.0258
  0
LINE
  8
0
 10
23.521
 20
-26.0258
 11
23.7095
 21
-25.9774
  0
LINE
  8
0
 10
23.7095
 20
-25.9774
 11
23.9027
 21
-25.953
  0
LINE
  8
0
 10
23.9027
 20
-25.953
 11
24.0973
 21
-25.953
  0
LINE
  8
0
 10
24.0973
 20
-25.953
 11
24.2904
 21
-25.9774
  0
LINE
  8
0
 10
24.2904
 20
-25.9774
 11
24.479
 21
-26.0258
  0
LINE
  8
0
 10
24.479
 20
-26.0258
 11
24.66
 21
-26.0975
  0
LINE
  8
0
 10
24.66
 20
-26.0975
 11
24.8305
 21
-26.1913
  0
LINE
  8
0
 10
24.8305
 20
-26.1913
 11
24.988
 21
-26.3057
  0
LINE
  8
0
 10
24.988
 20
-26.3057
 11
25.1299
 21
-26.4389
  0
LINE
  8
0
 10
25.1299
 20
-26.4389
 11
25.254
 21
-26.5889
  0
LINE
  8
0
 10
25.254
 20
-26.5889
 11
25.3583
 21
-26.7533
  0
LINE
  8
0
 10
25.3583
 20
-26.7533
 11
25.4411
 21
-26.9294
  0
LINE
  8
0
 10
25.4411
 20
-26.9294
 11
25.5013
 21
-27.1145
  0
LINE
  8
0
 10
25.5013
 20
-27.1145
 11
25.5378
 21
-27.3057
  0
LINE
  8
0
 10
25.5378
 20
-27.3057
 11
25.55
 21
-27.5
  0
LINE
  8
0
 10
25.55
 20
-27.5
 11
25.5378
 21
-27.6943
  0
LINE
  8
0
 10
25.5378
 20
-27.6943
 11
25.5013
 21
-27.8855
  0
LINE
  8
0
 10
25.5013
 20
-27.8855
 11
25.4411
 21
-28.0706
  0
LINE
  8
0
 10
25.4411
 20
-28.0706
 11
25.3583
 21
-28.2467
  0
LINE
  8
0
 10
25.3583
 20
-28.2467
 11
25.254
 21
-28.4111
  0
LINE
  8
0
 10
25.254
 20
-28.4111
 11
25.1299
 21
-28.561
  0
LINE
  8
0
 10
25.1299
 20
-28.561
 11
24.988
 21
-28.6943
  0
LINE
  8
0
 10
24.988
 20
-28.6943
 11
24.8305
 21
-28.8087
  0
LINE
  8
0
 10
24.8305
 20
-28.8087
 11
24.66
 21
-28.9025
  0
LINE
  8
0
 10
24.66
 20
-28.9025
 11
24.479
 21
-28.9741
  0
LINE
  8
0
 10
24.479
 20
-28.9741
 11
24.2904
 21
-29.0225
  0
LINE
  8
0
 10
24.2904
 20
-29.0225
 11
24.0973
 21
-29.0469
  0
LINE
  8
0
 10
24.0973
 20
-29.0469
 11
23.9027
 21
-29.0469
  0
LINE
  8
0
 10
-24.0973
 20
-29.0469
 11
-24.2904
 21
-29.0225
  0
LINE
  8
0
 10
-24.2904
 20
-29.0225
 11
-24.479
 21
-28.9741
  0
LINE
  8
0
 10
-24.479
 20
-28.9741
 11
-24.66
 21
-28.9025
  0
LINE
  8
0
 10
-24.66
 20
-28.9025
 11
-24.8305
 21
-28.8087
  0
LINE
  8
0
 10
-24.8305
 20
-28.8087
 11
-24.988
 21
-28.6943
  0
LINE
  8
0
 10
-24.988
 20
-28.6943
 11
-25.1299
 21
-28.561
  0
LINE
  8
0
 10
-25.1299
 20
-28.561
 11
-25.254
 21
-28.4111
  0
LINE
  8
0
 10
-25.254
 20
-28.4111
 11
-25.3583
 21
-28.2467
  0
LINE
  8
0
 10
-25.3583
 20
-28.2467
 11
-25.4411
 21
-28.0706
  0
LINE
  8
0
 10
-25.4411
 20
-28.0706
 11
-25.5013
 21
-27.8855
  0
LINE
  8
0
 10
-25.5013
 20
-27.8855
 11
-25.5378
 21
-27.6943
  0
LINE
  8
0
 10
-25.5378
 20
-27.6943
 11
-25.55
 21
-27.5
  0
LINE
  8
0
 10
-25.55
 20
-27.5
 11
-25.5378
 21
-27.3057
  0
LINE
  8
0
 10
-25.5378
 20
-27.3057
 11
-25.5013
 21
-27.1145
  0
LINE
  8
0
 10
-25.5013
 20
-27.1145
 11
-25.4411
 21
-26.9294
  0
LINE
  8
0
 10
-25.4411
 20
-26.9294
 11
-25.3583
 21
-26.7533
  0
LINE
  8
0
 10
-25.3583
 20
-26.7533
 11
-25.254
 21
-26.5889
  0
LINE
  8
0
 10
-25.254
 20
-26.5889
 11
-25.1299
 21
-26.4389
  0
LINE
  8
0
 10
-25.1299
 20
-26.4389
 11
-24.988
 21
-26.3057
  0
LINE
  8
0
 10
-24.988
 20
-26.3057
 11
-24.8305
 21
-26.1913
  0
LINE
  8
0
 10
-24.8305
 20
-26.1913
 11
-24.66
 21
-26.0975
  0
LINE
  8
0
 10
-24.66
 20
-26.0975
 11
-24.479
 21
-26.0258
  0
LINE
  8
0
 10
-24.479
 20
-26.0258
 11
-24.2904
 21
-25.9774
  0
LINE
  8
0
 10
-24.2904
 20
-25.9774
 11
-24.0973
 21
-25.953
  0
LINE
  8
0
 10
-24.0973
 20
-25.953
 11
-23.9027
 21
-25.953
  0
LINE
  8
0
 10
-23.9027
 20
-25.953
 11
-23.7095
 21
-25.9774
  0
LINE
  8
0
 10
-23.7095
 20
-25.9774
 11
-23.521
 21
-26.0258
  0
LINE
  8
0
 10
-23.521
 20
-26.0258
 11
-23.34
 21
-26.0975
  0
LINE
  8
0
 10
-23.34
 20
-26.0975
 11
-23.1695
 21
-26.1913
  0
LINE
  8
0
 10
-23.1695
 20
-26.1913
 11
-23.012
 21
-26.3057
  0
LINE
  8
0
 10
-23.012
 20
-26.3057
 11
-22.8701
 21
-26.4389
  0
LINE
  8
0
 10
-22.8701
 20
-26.4389
 11
-22.746
 21
-26.5889
  0
LINE
  8
0
 10
-22.746
 20
-26.5889
 11
-22.6417
 21
-26.7533
  0
LINE
  8
0
 10
-22.6417
 20
-26.7533
 11
-22.5588
 21
-26.9294
  0
LINE
  8
0
 10
-22.5588
 20
-26.9294
 11
-22.4987
 21
-27.1145
  0
LINE
  8
0
 10
-22.4987
 20
-27.1145
 11
-22.4622
 21
-27.3057
  0
LINE
  8
0
 10
-22.4622
 20
-27.3057
 11
-22.45
 21
-27.5
  0
LINE
  8
0
 10
-22.45
 20
-27.5
 11
-22.4622
 21
-27.6943
  0
LINE
  8
0
 10
-22.4622
 20
-27.6943
 11
-22.4987
 21
-27.8855
  0
LINE
  8
0
 10
-22.4987
 20
-27.8855
 11
-22.5588
 21
-28.0706
  0
LINE
  8
0
 10
-22.5588
 20
-28.0706
 11
-22.6417
 21
-28.2467
  0
LINE
  8
0
 10
-22.6417
 20
-28.2467
 11
-22.746
 21
-28.4111
  0
LINE
  8
0
 10
-22.746
 20
-28.4111
 11
-22.8701
 21
-28.561
  0
LINE
  8
0
 10
-22.8701
 20
-28.561
 11
-23.012
 21
-28.6943
  0
LINE
  8
0
 10
-23.012
 20
-28.6943
 11
-23.1695
 21
-28.8087
  0
LINE
  8
0
 10
-23.1695
 20
-28.8087
 11
-23.34
 21
-28.9025
  0
LINE
  8
0
 10
-23.34
 20
-28.9025
 11
-23.521
 21
-28.9741
  0
LINE
  8
0
 10
-23.521
 20
-28.9741
 11
-23.7095
 21
-29.0225
  0
LINE
  8
0
 10
-23.7095
 20
-29.0225
 11
-23.9027
 21
-29.0469
  0
LINE
  8
0
 10
-23.9027
 20
-29.0469
 11
-24.0973
 21
-29.0469
  0
LINE
  8
0
 10
-0.0973206
 20
-29.0469
 11
-0.290436
 21
-29.0225
  0
LINE
  8
0
 10
-0.290436
 20
-29.0225
 11
-0.478973
 21
-28.9741
  0
LINE
  8
0
 10
-0.478973
 20
-28.9741
 11
-0.659958
 21
-28.9025
  0
LINE
  8
0
 10
-0.659958
 20
-28.9025
 11
-0.830521
 21
-28.8087
  0
LINE
  8
0
 10
-0.830521
 20
-28.8087
 11
-0.988007
 21
-28.6943
  0
LINE
  8
0
 10
-0.988007
 20
-28.6943
 11
-1.1299
 21
-28.561
  0
LINE
  8
0
 10
-1.1299
 20
-28.561
 11
-1.25397
 21
-28.4111
  0
LINE
  8
0
 10
-1.25397
 20
-28.4111
 11
-1.35826
 21
-28.2467
  0
LINE
  8
0
 10
-1.35826
 20
-28.2467
 11
-1.44115
 21
-28.0706
  0
LINE
  8
0
 10
-1.44115
 20
-28.0706
 11
-1.5013
 21
-27.8855
  0
LINE
  8
0
 10
-1.5013
 20
-27.8855
 11
-1.53777
 21
-27.6943
  0
LINE
  8
0
 10
-1.53777
 20
-27.6943
 11
-1.54999
 21
-27.5
  0
LINE
  8
0
 10
-1.54999
 20
-27.5
 11
-1.53777
 21
-27.3057
  0
LINE
  8
0
 10
-1.53777
 20
-27.3057
 11
-1.5013
 21
-27.1145
  0
LINE
  8
0
 10
-1.5013
 20
-27.1145
 11
-1.44115
 21
-26.9294
  0
LINE
  8
0
 10
-1.44115
 20
-26.9294
 11
-1.35826
 21
-26.7533
  0
LINE
  8
0
 10
-1.35826
 20
-26.7533
 11
-1.25397
 21
-26.5889
  0
LINE
  8
0
 10
-1.25397
 20
-26.5889
 11
-1.1299
 21
-26.4389
  0
LINE
  8
0
 10
-1.1299
 20
-26.4389
 11
-0.988007
 21
-26.3057
  0
LINE
  8
0
 10
-0.988007
 20
-26.3057
 11
-0.830521
 21
-26.1913
  0
LINE
  8
0
 10
-0.830521
 20
-26.1913
 11
-0.659958
 21
-26.0975
  0
LINE
  8
0
 10
-0.659958
 20
-26.0975
 11
-0.478973
 21
-26.0258
  0
LINE
  8
0
 10
-0.478973
 20
-26.0258
 11
-0.290436
 21
-25.9774
  0
LINE
  8
0
 10
-0.290436
 20
-25.9774
 11
-0.0973206
 21
-25.953
  0
LINE
  8
0
 10
-0.0973206
 20
-25.953
 11
0.0973206
 21
-25.953
  0
LINE
  8
0
 10
0.0973206
 20
-25.953
 11
0.290436
 21
-25.9774
  0
LINE
  8
0
 10
0.290436
 20
-25.9774
 11
0.478973
 21
-26.0258
  0
LINE
  8
0
 10
0.478973
 20
-26.0258
 11
0.659958
 21
-26.0975
  0
LINE
  8
0
 10
0.659958
 20
-26.0975
 11
0.830521
 21
-26.1913
  0
LINE
  8
0
 10
0.830521
 20
-26.1913
 11
0.988007
 21
-26.3057
  0
LINE
  8
0
 10
0.988007
 20
-26.3057
 11
1.1299
 21
-26.4389
  0
LINE
  8
0
 10
1.1299
 20
-26.4389
 11
1.25397
 21
-26.5889
  0
LINE
  8
0
 10
1.25397
 20
-26.5889
 11
1.35826
 21
-26.7533
  0
LINE
  8
0
 10
1.35826
 20
-26.7533
 11
1.44115
 21
-26.9294
  0
LINE
  8
0
 10
1.44115
 20
-26.9294
 11
1.5013
 21
-27.1145
  0
LINE
  8
0
 10
1.5013
 20
-27.1145
 11
1.53777
 21
-27.3057
  0
LINE
  8
0
 10
1.53777
 20
-27.3057
 11
1.54999
 21
-27.5
  0
LINE
  8
0
 10
1.54999
 20
-27.5
 11
1.53777
 21
-27.6943
  0
LINE
  8
0
 10
1.53777
 20
-27.6943
 11
1.5013
 21
-27.8855
  0
LINE
  8
0
 10
1.5013
 20
-27.8855
 11
1.44115
 21
-28.0706
  0
LINE
  8
0
 10
1.44115
 20
-28.0706
 11
1.35826
 21
-28.2467
  0
LINE
  8
0
 10
1.35826
 20
-28.2467
 11
1.25397
 21
-28.4111
  0
LINE
  8
0
 10
1.25397
 20
-28.4111
 11
1.1299
 21
-28.561
  0
LINE
  8
0
 10
1.1299
 20
-28.561
 11
0.988007
 21
-28.6943
  0
LINE
  8
0
 10
0.988007
 20
-28.6943
 11
0.830521
 21
-28.8087
  0
LINE
  8
0
 10
0.830521
 20
-28.8087
 11
0.659958
 21
-28.9025
  0
LINE
  8
0
 10
0.659958
 20
-28.9025
 11
0.478973
 21
-28.9741
  0
LINE
  8
0
 10
0.478973
 20
-28.9741
 11
0.290436
 21
-29.0225
  0
LINE
  8
0
 10
0.290436
 20
-29.0225
 11
0.0973206
 21
-29.0469
  0
LINE
  8
0
 10
0.0973206
 20
-29.0469
 11
-0.0973206
 21
-29.0469
  0
ENDSEC
  0
SECTION
  2
OBJECTS
  0
DICTIONARY
  0
ENDSEC
  0
EOF
