  0
SECTION
  2
BLOCKS
  0
ENDSEC
  0
SECTION
  2
ENTITIES
  0
LINE
  8
0
 10
33.2725
 20
-34.3776
 11
33.9695
 21
-34.0225
  0
LINE
  8
0
 10
33.9695
 20
-34.0225
 11
34.5225
 21
-33.4695
  0
LINE
  8
0
 10
34.5225
 20
-33.4695
 11
34.8776
 21
-32.7725
  0
LINE
  8
0
 10
34.8776
 20
-32.7725
 11
35
 21
-32
  0
LINE
  8
0
 10
35
 20
-32
 11
35
 21
-23
  0
LINE
  8
0
 10
35
 20
-23
 11
34.8776
 21
-22.2274
  0
LINE
  8
0
 10
34.8776
 20
-22.2274
 11
23.2444
 21
9.20311
  0
LINE
  8
0
 10
23.2444
 20
9.20311
 11
21.9077
 21
12.0438
  0
LINE
  8
0
 10
21.9077
 20
12.0438
 11
20.2254
 21
14.6946
  0
LINE
  8
0
 10
20.2254
 20
14.6946
 11
18.2242
 21
17.1137
  0
LINE
  8
0
 10
18.2242
 20
17.1137
 11
15.9356
 21
19.2628
  0
LINE
  8
0
 10
15.9356
 20
19.2628
 11
13.3957
 21
21.1082
  0
LINE
  8
0
 10
13.3957
 20
21.1082
 11
10.6445
 21
22.6207
  0
LINE
  8
0
 10
10.6445
 20
22.6207
 11
7.72542
 21
23.7764
  0
LINE
  8
0
 10
7.72542
 20
23.7764
 11
4.68452
 21
24.5572
  0
LINE
  8
0
 10
4.68452
 20
24.5572
 11
1.56975
 21
24.9507
  0
LINE
  8
0
 10
1.56975
 20
24.9507
 11
-1.56975
 21
24.9507
  0
LINE
  8
0
 10
-1.56975
 20
24.9507
 11
-4.68452
 21
24.5572
  0
LINE
  8
0
 10
-4.68452
 20
24.5572
 11
-7.72542
 21
23.7764
  0
LINE
  8
0
 10
-7.72542
 20
23.7764
 11
-10.6445
 21
22.6207
  0
LINE
  8
0
 10
-10.6445
 20
22.6207
 11
-13.3957
 21
21.1082
  0
LINE
  8
0
 10
-13.3957
 20
21.1082
 11
-15.9356
 21
19.2628
  0
LINE
  8
0
 10
-15.9356
 20
19.2628
 11
-18.2242
 21
17.1137
  0
LINE
  8
0
 10
-18.2242
 20
17.1137
 11
-20.2254
 21
14.6946
  0
LINE
  8
0
 10
-20.2254
 20
14.6946
 11
-21.9077
 21
12.0438
  0
LINE
  8
0
 10
-21.9077
 20
12.0438
 11
-23.2444
 21
9.20311
  0
LINE
  8
0
 10
-23.2444
 20
9.20311
 11
-34.8776
 21
-22.2274
  0
LINE
  8
0
 10
-34.8776
 20
-22.2274
 11
-35
 21
-23
  0
LINE
  8
0
 10
-35
 20
-23
 11
-35
 21
-32
  0
LINE
  8
0
 10
-35
 20
-32
 11
-34.8776
 21
-32.7725
  0
LINE
  8
0
 10
-34.8776
 20
-32.7725
 11
-34.5225
 21
-33.4695
  0
LINE
  8
0
 10
-34.5225
 20
-33.4695
 11
-33.9695
 21
-34.0225
  0
LINE
  8
0
 10
-33.9695
 20
-34.0225
 11
-33.2725
 21
-34.3776
  0
LINE
  8
0
 10
-33.2725
 20
-34.3776
 11
-32.5
 21
-34.5
  0
LINE
  8
0
 10
-32.5
 20
-34.5
 11
32.5
 21
-34.5
  0
LINE
  8
0
 10
32.5
 20
-34.5
 11
33.2725
 21
-34.3776
  0
LINE
  8
0
 10
-1.16162
 20
-18.4635
 11
-3.46655
 21
-18.1723
  0
LINE
  8
0
 10
-3.46655
 20
-18.1723
 11
-5.71681
 21
-17.5945
  0
LINE
  8
0
 10
-5.71681
 20
-17.5945
 11
-7.87691
 21
-16.7393
  0
LINE
  8
0
 10
-7.87691
 20
-16.7393
 11
-9.91278
 21
-15.6201
  0
LINE
  8
0
 10
-9.91278
 20
-15.6201
 11
-11.7923
 21
-14.2545
  0
LINE
  8
0
 10
-11.7923
 20
-14.2545
 11
-13.4859
 21
-12.6641
  0
LINE
  8
0
 10
-13.4859
 20
-12.6641
 11
-14.9668
 21
-10.874
  0
LINE
  8
0
 10
-14.9668
 20
-10.874
 11
-16.2117
 21
-8.91243
  0
LINE
  8
0
 10
-16.2117
 20
-8.91243
 11
-17.2009
 21
-6.8103
  0
LINE
  8
0
 10
-17.2009
 20
-6.8103
 11
-17.9188
 21
-4.60075
  0
LINE
  8
0
 10
-17.9188
 20
-4.60075
 11
-18.3541
 21
-2.31866
  0
LINE
  8
0
 10
-18.3541
 20
-2.31866
 11
-18.5
 21
0
  0
LINE
  8
0
 10
-18.5
 20
0
 11
-18.3541
 21
2.31866
  0
LINE
  8
0
 10
-18.3541
 20
2.31866
 11
-17.9188
 21
4.60075
  0
LINE
  8
0
 10
-17.9188
 20
4.60075
 11
-17.2009
 21
6.8103
  0
LINE
  8
0
 10
-17.2009
 20
6.8103
 11
-16.2117
 21
8.91243
  0
LINE
  8
0
 10
-16.2117
 20
8.91243
 11
-14.9668
 21
10.874
  0
LINE
  8
0
 10
-14.9668
 20
10.874
 11
-13.4859
 21
12.6641
  0
LINE
  8
0
 10
-13.4859
 20
12.6641
 11
-11.7923
 21
14.2545
  0
LINE
  8
0
 10
-11.7923
 20
14.2545
 11
-9.91278
 21
15.6201
  0
LINE
  8
0
 10
-9.91278
 20
15.6201
 11
-7.87691
 21
16.7393
  0
LINE
  8
0
 10
-7.87691
 20
16.7393
 11
-5.71681
 21
17.5945
  0
LINE
  8
0
 10
-5.71681
 20
17.5945
 11
-3.46655
 21
18.1723
  0
LINE
  8
0
 10
-3.46655
 20
18.1723
 11
-1.16162
 21
18.4635
  0
LINE
  8
0
 10
-1.16162
 20
18.4635
 11
1.16162
 21
18.4635
  0
LINE
  8
0
 10
1.16162
 20
18.4635
 11
3.46655
 21
18.1723
  0
LINE
  8
0
 10
3.46655
 20
18.1723
 11
5.71681
 21
17.5945
  0
LINE
  8
0
 10
5.71681
 20
17.5945
 11
7.87691
 21
16.7393
  0
LINE
  8
0
 10
7.87691
 20
16.7393
 11
9.91278
 21
15.6201
  0
LINE
  8
0
 10
9.91278
 20
15.6201
 11
11.7923
 21
14.2545
  0
LINE
  8
0
 10
11.7923
 20
14.2545
 11
13.4859
 21
12.6641
  0
LINE
  8
0
 10
13.4859
 20
12.6641
 11
14.9668
 21
10.874
  0
LINE
  8
0
 10
14.9668
 20
10.874
 11
16.2117
 21
8.91243
  0
LINE
  8
0
 10
16.2117
 20
8.91243
 11
17.2009
 21
6.8103
  0
LINE
  8
0
 10
17.2009
 20
6.8103
 11
17.9188
 21
4.60075
  0
LINE
  8
0
 10
17.9188
 20
4.60075
 11
18.3541
 21
2.31866
  0
LINE
  8
0
 10
18.3541
 20
2.31866
 11
18.5
 21
0
  0
LINE
  8
0
 10
18.5
 20
0
 11
18.3541
 21
-2.31866
  0
LINE
  8
0
 10
18.3541
 20
-2.31866
 11
17.9188
 21
-4.60075
  0
LINE
  8
0
 10
17.9188
 20
-4.60075
 11
17.2009
 21
-6.8103
  0
LINE
  8
0
 10
17.2009
 20
-6.8103
 11
16.2117
 21
-8.91243
  0
LINE
  8
0
 10
16.2117
 20
-8.91243
 11
14.9668
 21
-10.874
  0
LINE
  8
0
 10
14.9668
 20
-10.874
 11
13.4859
 21
-12.6641
  0
LINE
  8
0
 10
13.4859
 20
-12.6641
 11
11.7923
 21
-14.2545
  0
LINE
  8
0
 10
11.7923
 20
-14.2545
 11
9.91278
 21
-15.6201
  0
LINE
  8
0
 10
9.91278
 20
-15.6201
 11
7.87691
 21
-16.7393
  0
LINE
  8
0
 10
7.87691
 20
-16.7393
 11
5.71681
 21
-17.5945
  0
LINE
  8
0
 10
5.71681
 20
-17.5945
 11
3.46655
 21
-18.1723
  0
LINE
  8
0
 10
3.46655
 20
-18.1723
 11
1.16162
 21
-18.4635
  0
LINE
  8
0
 10
1.16162
 20
-18.4635
 11
-1.16162
 21
-18.4635
  0
LINE
  8
0
 10
-22.0973
 20
-15.5469
 11
-22.2904
 21
-15.5225
  0
LINE
  8
0
 10
-22.2904
 20
-15.5225
 11
-22.479
 21
-15.4741
  0
LINE
  8
0
 10
-22.479
 20
-15.4741
 11
-22.66
 21
-15.4025
  0
LINE
  8
0
 10
-22.66
 20
-15.4025
 11
-22.8305
 21
-15.3087
  0
LINE
  8
0
 10
-22.8305
 20
-15.3087
 11
-22.988
 21
-15.1943
  0
LINE
  8
0
 10
-22.988
 20
-15.1943
 11
-23.1299
 21
-15.061
  0
LINE
  8
0
 10
-23.1299
 20
-15.061
 11
-23.254
 21
-14.9111
  0
LINE
  8
0
 10
-23.254
 20
-14.9111
 11
-23.3583
 21
-14.7467
  0
LINE
  8
0
 10
-23.3583
 20
-14.7467
 11
-23.4411
 21
-14.5706
  0
LINE
  8
0
 10
-23.4411
 20
-14.5706
 11
-23.5013
 21
-14.3855
  0
LINE
  8
0
 10
-23.5013
 20
-14.3855
 11
-23.5378
 21
-14.1943
  0
LINE
  8
0
 10
-23.5378
 20
-14.1943
 11
-23.55
 21
-14
  0
LINE
  8
0
 10
-23.55
 20
-14
 11
-23.5378
 21
-13.8057
  0
LINE
  8
0
 10
-23.5378
 20
-13.8057
 11
-23.5013
 21
-13.6145
  0
LINE
  8
0
 10
-23.5013
 20
-13.6145
 11
-23.4411
 21
-13.4294
  0
LINE
  8
0
 10
-23.4411
 20
-13.4294
 11
-23.3583
 21
-13.2533
  0
LINE
  8
0
 10
-23.3583
 20
-13.2533
 11
-23.254
 21
-13.0889
  0
LINE
  8
0
 10
-23.254
 20
-13.0889
 11
-23.1299
 21
-12.9389
  0
LINE
  8
0
 10
-23.1299
 20
-12.9389
 11
-22.988
 21
-12.8057
  0
LINE
  8
0
 10
-22.988
 20
-12.8057
 11
-22.8305
 21
-12.6913
  0
LINE
  8
0
 10
-22.8305
 20
-12.6913
 11
-22.66
 21
-12.5975
  0
LINE
  8
0
 10
-22.66
 20
-12.5975
 11
-22.479
 21
-12.5258
  0
LINE
  8
0
 10
-22.479
 20
-12.5258
 11
-22.2904
 21
-12.4774
  0
LINE
  8
0
 10
-22.2904
 20
-12.4774
 11
-22.0973
 21
-12.453
  0
LINE
  8
0
 10
-22.0973
 20
-12.453
 11
-21.9027
 21
-12.453
  0
LINE
  8
0
 10
-21.9027
 20
-12.453
 11
-21.7095
 21
-12.4774
  0
LINE
  8
0
 10
-21.7095
 20
-12.4774
 11
-21.521
 21
-12.5258
  0
LINE
  8
0
 10
-21.521
 20
-12.5258
 11
-21.34
 21
-12.5975
  0
LINE
  8
0
 10
-21.34
 20
-12.5975
 11
-21.1695
 21
-12.6913
  0
LINE
  8
0
 10
-21.1695
 20
-12.6913
 11
-21.012
 21
-12.8057
  0
LINE
  8
0
 10
-21.012
 20
-12.8057
 11
-20.8701
 21
-12.9389
  0
LINE
  8
0
 10
-20.8701
 20
-12.9389
 11
-20.746
 21
-13.0889
  0
LINE
  8
0
 10
-20.746
 20
-13.0889
 11
-20.6417
 21
-13.2533
  0
LINE
  8
0
 10
-20.6417
 20
-13.2533
 11
-20.5588
 21
-13.4294
  0
LINE
  8
0
 10
-20.5588
 20
-13.4294
 11
-20.4987
 21
-13.6145
  0
LINE
  8
0
 10
-20.4987
 20
-13.6145
 11
-20.4622
 21
-13.8057
  0
LINE
  8
0
 10
-20.4622
 20
-13.8057
 11
-20.45
 21
-14
  0
LINE
  8
0
 10
-20.45
 20
-14
 11
-20.4622
 21
-14.1943
  0
LINE
  8
0
 10
-20.4622
 20
-14.1943
 11
-20.4987
 21
-14.3855
  0
LINE
  8
0
 10
-20.4987
 20
-14.3855
 11
-20.5588
 21
-14.5706
  0
LINE
  8
0
 10
-20.5588
 20
-14.5706
 11
-20.6417
 21
-14.7467
  0
LINE
  8
0
 10
-20.6417
 20
-14.7467
 11
-20.746
 21
-14.9111
  0
LINE
  8
0
 10
-20.746
 20
-14.9111
 11
-20.8701
 21
-15.061
  0
LINE
  8
0
 10
-20.8701
 20
-15.061
 11
-21.012
 21
-15.1943
  0
LINE
  8
0
 10
-21.012
 20
-15.1943
 11
-21.1695
 21
-15.3087
  0
LINE
  8
0
 10
-21.1695
 20
-15.3087
 11
-21.34
 21
-15.4025
  0
LINE
  8
0
 10
-21.34
 20
-15.4025
 11
-21.521
 21
-15.4741
  0
LINE
  8
0
 10
-21.521
 20
-15.4741
 11
-21.7095
 21
-15.5225
  0
LINE
  8
0
 10
-21.7095
 20
-15.5225
 11
-21.9027
 21
-15.5469
  0
LINE
  8
0
 10
-21.9027
 20
-15.5469
 11
-22.0973
 21
-15.5469
  0
LINE
  8
0
 10
21.9027
 20
-15.5469
 11
21.7095
 21
-15.5225
  0
LINE
  8
0
 10
21.7095
 20
-15.5225
 11
21.521
 21
-15.4741
  0
LINE
  8
0
 10
21.521
 20
-15.4741
 11
21.34
 21
-15.4025
  0
LINE
  8
0
 10
21.34
 20
-15.4025
 11
21.1695
 21
-15.3087
  0
LINE
  8
0
 10
21.1695
 20
-15.3087
 11
21.012
 21
-15.1943
  0
LINE
  8
0
 10
21.012
 20
-15.1943
 11
20.8701
 21
-15.061
  0
LINE
  8
0
 10
20.8701
 20
-15.061
 11
20.746
 21
-14.9111
  0
LINE
  8
0
 10
20.746
 20
-14.9111
 11
20.6417
 21
-14.7467
  0
LINE
  8
0
 10
20.6417
 20
-14.7467
 11
20.5588
 21
-14.5706
  0
LINE
  8
0
 10
20.5588
 20
-14.5706
 11
20.4987
 21
-14.3855
  0
LINE
  8
0
 10
20.4987
 20
-14.3855
 11
20.4622
 21
-14.1943
  0
LINE
  8
0
 10
20.4622
 20
-14.1943
 11
20.45
 21
-14
  0
LINE
  8
0
 10
20.45
 20
-14
 11
20.4622
 21
-13.8057
  0
LINE
  8
0
 10
20.4622
 20
-13.8057
 11
20.4987
 21
-13.6145
  0
LINE
  8
0
 10
20.4987
 20
-13.6145
 11
20.5588
 21
-13.4294
  0
LINE
  8
0
 10
20.5588
 20
-13.4294
 11
20.6417
 21
-13.2533
  0
LINE
  8
0
 10
20.6417
 20
-13.2533
 11
20.746
 21
-13.0889
  0
LINE
  8
0
 10
20.746
 20
-13.0889
 11
20.8701
 21
-12.9389
  0
LINE
  8
0
 10
20.8701
 20
-12.9389
 11
21.012
 21
-12.8057
  0
LINE
  8
0
 10
21.012
 20
-12.8057
 11
21.1695
 21
-12.6913
  0
LINE
  8
0
 10
21.1695
 20
-12.6913
 11
21.34
 21
-12.5975
  0
LINE
  8
0
 10
21.34
 20
-12.5975
 11
21.521
 21
-12.5258
  0
LINE
  8
0
 10
21.521
 20
-12.5258
 11
21.7095
 21
-12.4774
  0
LINE
  8
0
 10
21.7095
 20
-12.4774
 11
21.9027
 21
-12.453
  0
LINE
  8
0
 10
21.9027
 20
-12.453
 11
22.0973
 21
-12.453
  0
LINE
  8
0
 10
22.0973
 20
-12.453
 11
22.2904
 21
-12.4774
  0
LINE
  8
0
 10
22.2904
 20
-12.4774
 11
22.479
 21
-12.5258
  0
LINE
  8
0
 10
22.479
 20
-12.5258
 11
22.66
 21
-12.5975
  0
LINE
  8
0
 10
22.66
 20
-12.5975
 11
22.8305
 21
-12.6913
  0
LINE
  8
0
 10
22.8305
 20
-12.6913
 11
22.988
 21
-12.8057
  0
LINE
  8
0
 10
22.988
 20
-12.8057
 11
23.1299
 21
-12.9389
  0
LINE
  8
0
 10
23.1299
 20
-12.9389
 11
23.254
 21
-13.0889
  0
LINE
  8
0
 10
23.254
 20
-13.0889
 11
23.3583
 21
-13.2533
  0
LINE
  8
0
 10
23.3583
 20
-13.2533
 11
23.4411
 21
-13.4294
  0
LINE
  8
0
 10
23.4411
 20
-13.4294
 11
23.5013
 21
-13.6145
  0
LINE
  8
0
 10
23.5013
 20
-13.6145
 11
23.5378
 21
-13.8057
  0
LINE
  8
0
 10
23.5378
 20
-13.8057
 11
23.55
 21
-14
  0
LINE
  8
0
 10
23.55
 20
-14
 11
23.5378
 21
-14.1943
  0
LINE
  8
0
 10
23.5378
 20
-14.1943
 11
23.5013
 21
-14.3855
  0
LINE
  8
0
 10
23.5013
 20
-14.3855
 11
23.4411
 21
-14.5706
  0
LINE
  8
0
 10
23.4411
 20
-14.5706
 11
23.3583
 21
-14.7467
  0
LINE
  8
0
 10
23.3583
 20
-14.7467
 11
23.254
 21
-14.9111
  0
LINE
  8
0
 10
23.254
 20
-14.9111
 11
23.1299
 21
-15.061
  0
LINE
  8
0
 10
23.1299
 20
-15.061
 11
22.988
 21
-15.1943
  0
LINE
  8
0
 10
22.988
 20
-15.1943
 11
22.8305
 21
-15.3087
  0
LINE
  8
0
 10
22.8305
 20
-15.3087
 11
22.66
 21
-15.4025
  0
LINE
  8
0
 10
22.66
 20
-15.4025
 11
22.479
 21
-15.4741
  0
LINE
  8
0
 10
22.479
 20
-15.4741
 11
22.2904
 21
-15.5225
  0
LINE
  8
0
 10
22.2904
 20
-15.5225
 11
22.0973
 21
-15.5469
  0
LINE
  8
0
 10
22.0973
 20
-15.5469
 11
21.9027
 21
-15.5469
  0
LINE
  8
0
 10
-24.0973
 20
-29.0469
 11
-24.2904
 21
-29.0225
  0
LINE
  8
0
 10
-24.2904
 20
-29.0225
 11
-24.479
 21
-28.9741
  0
LINE
  8
0
 10
-24.479
 20
-28.9741
 11
-24.66
 21
-28.9025
  0
LINE
  8
0
 10
-24.66
 20
-28.9025
 11
-24.8305
 21
-28.8087
  0
LINE
  8
0
 10
-24.8305
 20
-28.8087
 11
-24.988
 21
-28.6943
  0
LINE
  8
0
 10
-24.988
 20
-28.6943
 11
-25.1299
 21
-28.561
  0
LINE
  8
0
 10
-25.1299
 20
-28.561
 11
-25.254
 21
-28.4111
  0
LINE
  8
0
 10
-25.254
 20
-28.4111
 11
-25.3583
 21
-28.2467
  0
LINE
  8
0
 10
-25.3583
 20
-28.2467
 11
-25.4411
 21
-28.0706
  0
LINE
  8
0
 10
-25.4411
 20
-28.0706
 11
-25.5013
 21
-27.8855
  0
LINE
  8
0
 10
-25.5013
 20
-27.8855
 11
-25.5378
 21
-27.6943
  0
LINE
  8
0
 10
-25.5378
 20
-27.6943
 11
-25.55
 21
-27.5
  0
LINE
  8
0
 10
-25.55
 20
-27.5
 11
-25.5378
 21
-27.3057
  0
LINE
  8
0
 10
-25.5378
 20
-27.3057
 11
-25.5013
 21
-27.1145
  0
LINE
  8
0
 10
-25.5013
 20
-27.1145
 11
-25.4411
 21
-26.9294
  0
LINE
  8
0
 10
-25.4411
 20
-26.9294
 11
-25.3583
 21
-26.7533
  0
LINE
  8
0
 10
-25.3583
 20
-26.7533
 11
-25.254
 21
-26.5889
  0
LINE
  8
0
 10
-25.254
 20
-26.5889
 11
-25.1299
 21
-26.4389
  0
LINE
  8
0
 10
-25.1299
 20
-26.4389
 11
-24.988
 21
-26.3057
  0
LINE
  8
0
 10
-24.988
 20
-26.3057
 11
-24.8305
 21
-26.1913
  0
LINE
  8
0
 10
-24.8305
 20
-26.1913
 11
-24.66
 21
-26.0975
  0
LINE
  8
0
 10
-24.66
 20
-26.0975
 11
-24.479
 21
-26.0258
  0
LINE
  8
0
 10
-24.479
 20
-26.0258
 11
-24.2904
 21
-25.9774
  0
LINE
  8
0
 10
-24.2904
 20
-25.9774
 11
-24.0973
 21
-25.953
  0
LINE
  8
0
 10
-24.0973
 20
-25.953
 11
-23.9027
 21
-25.953
  0
LINE
  8
0
 10
-23.9027
 20
-25.953
 11
-23.7095
 21
-25.9774
  0
LINE
  8
0
 10
-23.7095
 20
-25.9774
 11
-23.521
 21
-26.0258
  0
LINE
  8
0
 10
-23.521
 20
-26.0258
 11
-23.34
 21
-26.0975
  0
LINE
  8
0
 10
-23.34
 20
-26.0975
 11
-23.1695
 21
-26.1913
  0
LINE
  8
0
 10
-23.1695
 20
-26.1913
 11
-23.012
 21
-26.3057
  0
LINE
  8
0
 10
-23.012
 20
-26.3057
 11
-22.8701
 21
-26.4389
  0
LINE
  8
0
 10
-22.8701
 20
-26.4389
 11
-22.746
 21
-26.5889
  0
LINE
  8
0
 10
-22.746
 20
-26.5889
 11
-22.6417
 21
-26.7533
  0
LINE
  8
0
 10
-22.6417
 20
-26.7533
 11
-22.5588
 21
-26.9294
  0
LINE
  8
0
 10
-22.5588
 20
-26.9294
 11
-22.4987
 21
-27.1145
  0
LINE
  8
0
 10
-22.4987
 20
-27.1145
 11
-22.4622
 21
-27.3057
  0
LINE
  8
0
 10
-22.4622
 20
-27.3057
 11
-22.45
 21
-27.5
  0
LINE
  8
0
 10
-22.45
 20
-27.5
 11
-22.4622
 21
-27.6943
  0
LINE
  8
0
 10
-22.4622
 20
-27.6943
 11
-22.4987
 21
-27.8855
  0
LINE
  8
0
 10
-22.4987
 20
-27.8855
 11
-22.5588
 21
-28.0706
  0
LINE
  8
0
 10
-22.5588
 20
-28.0706
 11
-22.6417
 21
-28.2467
  0
LINE
  8
0
 10
-22.6417
 20
-28.2467
 11
-22.746
 21
-28.4111
  0
LINE
  8
0
 10
-22.746
 20
-28.4111
 11
-22.8701
 21
-28.561
  0
LINE
  8
0
 10
-22.8701
 20
-28.561
 11
-23.012
 21
-28.6943
  0
LINE
  8
0
 10
-23.012
 20
-28.6943
 11
-23.1695
 21
-28.8087
  0
LINE
  8
0
 10
-23.1695
 20
-28.8087
 11
-23.34
 21
-28.9025
  0
LINE
  8
0
 10
-23.34
 20
-28.9025
 11
-23.521
 21
-28.9741
  0
LINE
  8
0
 10
-23.521
 20
-28.9741
 11
-23.7095
 21
-29.0225
  0
LINE
  8
0
 10
-23.7095
 20
-29.0225
 11
-23.9027
 21
-29.0469
  0
LINE
  8
0
 10
-23.9027
 20
-29.0469
 11
-24.0973
 21
-29.0469
  0
LINE
  8
0
 10
-0.0973206
 20
-29.0469
 11
-0.290436
 21
-29.0225
  0
LINE
  8
0
 10
-0.290436
 20
-29.0225
 11
-0.478973
 21
-28.9741
  0
LINE
  8
0
 10
-0.478973
 20
-28.9741
 11
-0.659958
 21
-28.9025
  0
LINE
  8
0
 10
-0.659958
 20
-28.9025
 11
-0.830521
 21
-28.8087
  0
LINE
  8
0
 10
-0.830521
 20
-28.8087
 11
-0.988007
 21
-28.6943
  0
LINE
  8
0
 10
-0.988007
 20
-28.6943
 11
-1.1299
 21
-28.561
  0
LINE
  8
0
 10
-1.1299
 20
-28.561
 11
-1.25397
 21
-28.4111
  0
LINE
  8
0
 10
-1.25397
 20
-28.4111
 11
-1.35826
 21
-28.2467
  0
LINE
  8
0
 10
-1.35826
 20
-28.2467
 11
-1.44115
 21
-28.0706
  0
LINE
  8
0
 10
-1.44115
 20
-28.0706
 11
-1.5013
 21
-27.8855
  0
LINE
  8
0
 10
-1.5013
 20
-27.8855
 11
-1.53777
 21
-27.6943
  0
LINE
  8
0
 10
-1.53777
 20
-27.6943
 11
-1.54999
 21
-27.5
  0
LINE
  8
0
 10
-1.54999
 20
-27.5
 11
-1.53777
 21
-27.3057
  0
LINE
  8
0
 10
-1.53777
 20
-27.3057
 11
-1.5013
 21
-27.1145
  0
LINE
  8
0
 10
-1.5013
 20
-27.1145
 11
-1.44115
 21
-26.9294
  0
LINE
  8
0
 10
-1.44115
 20
-26.9294
 11
-1.35826
 21
-26.7533
  0
LINE
  8
0
 10
-1.35826
 20
-26.7533
 11
-1.25397
 21
-26.5889
  0
LINE
  8
0
 10
-1.25397
 20
-26.5889
 11
-1.1299
 21
-26.4389
  0
LINE
  8
0
 10
-1.1299
 20
-26.4389
 11
-0.988007
 21
-26.3057
  0
LINE
  8
0
 10
-0.988007
 20
-26.3057
 11
-0.830521
 21
-26.1913
  0
LINE
  8
0
 10
-0.830521
 20
-26.1913
 11
-0.659958
 21
-26.0975
  0
LINE
  8
0
 10
-0.659958
 20
-26.0975
 11
-0.478973
 21
-26.0258
  0
LINE
  8
0
 10
-0.478973
 20
-26.0258
 11
-0.290436
 21
-25.9774
  0
LINE
  8
0
 10
-0.290436
 20
-25.9774
 11
-0.0973206
 21
-25.953
  0
LINE
  8
0
 10
-0.0973206
 20
-25.953
 11
0.0973206
 21
-25.953
  0
LINE
  8
0
 10
0.0973206
 20
-25.953
 11
0.290436
 21
-25.9774
  0
LINE
  8
0
 10
0.290436
 20
-25.9774
 11
0.478973
 21
-26.0258
  0
LINE
  8
0
 10
0.478973
 20
-26.0258
 11
0.659958
 21
-26.0975
  0
LINE
  8
0
 10
0.659958
 20
-26.0975
 11
0.830521
 21
-26.1913
  0
LINE
  8
0
 10
0.830521
 20
-26.1913
 11
0.988007
 21
-26.3057
  0
LINE
  8
0
 10
0.988007
 20
-26.3057
 11
1.1299
 21
-26.4389
  0
LINE
  8
0
 10
1.1299
 20
-26.4389
 11
1.25397
 21
-26.5889
  0
LINE
  8
0
 10
1.25397
 20
-26.5889
 11
1.35826
 21
-26.7533
  0
LINE
  8
0
 10
1.35826
 20
-26.7533
 11
1.44115
 21
-26.9294
  0
LINE
  8
0
 10
1.44115
 20
-26.9294
 11
1.5013
 21
-27.1145
  0
LINE
  8
0
 10
1.5013
 20
-27.1145
 11
1.53777
 21
-27.3057
  0
LINE
  8
0
 10
1.53777
 20
-27.3057
 11
1.54999
 21
-27.5
  0
LINE
  8
0
 10
1.54999
 20
-27.5
 11
1.53777
 21
-27.6943
  0
LINE
  8
0
 10
1.53777
 20
-27.6943
 11
1.5013
 21
-27.8855
  0
LINE
  8
0
 10
1.5013
 20
-27.8855
 11
1.44115
 21
-28.0706
  0
LINE
  8
0
 10
1.44115
 20
-28.0706
 11
1.35826
 21
-28.2467
  0
LINE
  8
0
 10
1.35826
 20
-28.2467
 11
1.25397
 21
-28.4111
  0
LINE
  8
0
 10
1.25397
 20
-28.4111
 11
1.1299
 21
-28.561
  0
LINE
  8
0
 10
1.1299
 20
-28.561
 11
0.988007
 21
-28.6943
  0
LINE
  8
0
 10
0.988007
 20
-28.6943
 11
0.830521
 21
-28.8087
  0
LINE
  8
0
 10
0.830521
 20
-28.8087
 11
0.659958
 21
-28.9025
  0
LINE
  8
0
 10
0.659958
 20
-28.9025
 11
0.478973
 21
-28.9741
  0
LINE
  8
0
 10
0.478973
 20
-28.9741
 11
0.290436
 21
-29.0225
  0
LINE
  8
0
 10
0.290436
 20
-29.0225
 11
0.0973206
 21
-29.0469
  0
LINE
  8
0
 10
0.0973206
 20
-29.0469
 11
-0.0973206
 21
-29.0469
  0
LINE
  8
0
 10
23.9027
 20
-29.0469
 11
23.7095
 21
-29.0225
  0
LINE
  8
0
 10
23.7095
 20
-29.0225
 11
23.521
 21
-28.9741
  0
LINE
  8
0
 10
23.521
 20
-28.9741
 11
23.34
 21
-28.9025
  0
LINE
  8
0
 10
23.34
 20
-28.9025
 11
23.1695
 21
-28.8087
  0
LINE
  8
0
 10
23.1695
 20
-28.8087
 11
23.012
 21
-28.6943
  0
LINE
  8
0
 10
23.012
 20
-28.6943
 11
22.8701
 21
-28.561
  0
LINE
  8
0
 10
22.8701
 20
-28.561
 11
22.746
 21
-28.4111
  0
LINE
  8
0
 10
22.746
 20
-28.4111
 11
22.6417
 21
-28.2467
  0
LINE
  8
0
 10
22.6417
 20
-28.2467
 11
22.5588
 21
-28.0706
  0
LINE
  8
0
 10
22.5588
 20
-28.0706
 11
22.4987
 21
-27.8855
  0
LINE
  8
0
 10
22.4987
 20
-27.8855
 11
22.4622
 21
-27.6943
  0
LINE
  8
0
 10
22.4622
 20
-27.6943
 11
22.45
 21
-27.5
  0
LINE
  8
0
 10
22.45
 20
-27.5
 11
22.4622
 21
-27.3057
  0
LINE
  8
0
 10
22.4622
 20
-27.3057
 11
22.4987
 21
-27.1145
  0
LINE
  8
0
 10
22.4987
 20
-27.1145
 11
22.5588
 21
-26.9294
  0
LINE
  8
0
 10
22.5588
 20
-26.9294
 11
22.6417
 21
-26.7533
  0
LINE
  8
0
 10
22.6417
 20
-26.7533
 11
22.746
 21
-26.5889
  0
LINE
  8
0
 10
22.746
 20
-26.5889
 11
22.8701
 21
-26.4389
  0
LINE
  8
0
 10
22.8701
 20
-26.4389
 11
23.012
 21
-26.3057
  0
LINE
  8
0
 10
23.012
 20
-26.3057
 11
23.1695
 21
-26.1913
  0
LINE
  8
0
 10
23.1695
 20
-26.1913
 11
23.34
 21
-26.0975
  0
LINE
  8
0
 10
23.34
 20
-26.0975
 11
23.521
 21
-26.0258
  0
LINE
  8
0
 10
23.521
 20
-26.0258
 11
23.7095
 21
-25.9774
  0
LINE
  8
0
 10
23.7095
 20
-25.9774
 11
23.9027
 21
-25.953
  0
LINE
  8
0
 10
23.9027
 20
-25.953
 11
24.0973
 21
-25.953
  0
LINE
  8
0
 10
24.0973
 20
-25.953
 11
24.2904
 21
-25.9774
  0
LINE
  8
0
 10
24.2904
 20
-25.9774
 11
24.479
 21
-26.0258
  0
LINE
  8
0
 10
24.479
 20
-26.0258
 11
24.66
 21
-26.0975
  0
LINE
  8
0
 10
24.66
 20
-26.0975
 11
24.8305
 21
-26.1913
  0
LINE
  8
0
 10
24.8305
 20
-26.1913
 11
24.988
 21
-26.3057
  0
LINE
  8
0
 10
24.988
 20
-26.3057
 11
25.1299
 21
-26.4389
  0
LINE
  8
0
 10
25.1299
 20
-26.4389
 11
25.254
 21
-26.5889
  0
LINE
  8
0
 10
25.254
 20
-26.5889
 11
25.3583
 21
-26.7533
  0
LINE
  8
0
 10
25.3583
 20
-26.7533
 11
25.4411
 21
-26.9294
  0
LINE
  8
0
 10
25.4411
 20
-26.9294
 11
25.5013
 21
-27.1145
  0
LINE
  8
0
 10
25.5013
 20
-27.1145
 11
25.5378
 21
-27.3057
  0
LINE
  8
0
 10
25.5378
 20
-27.3057
 11
25.55
 21
-27.5
  0
LINE
  8
0
 10
25.55
 20
-27.5
 11
25.5378
 21
-27.6943
  0
LINE
  8
0
 10
25.5378
 20
-27.6943
 11
25.5013
 21
-27.8855
  0
LINE
  8
0
 10
25.5013
 20
-27.8855
 11
25.4411
 21
-28.0706
  0
LINE
  8
0
 10
25.4411
 20
-28.0706
 11
25.3583
 21
-28.2467
  0
LINE
  8
0
 10
25.3583
 20
-28.2467
 11
25.254
 21
-28.4111
  0
LINE
  8
0
 10
25.254
 20
-28.4111
 11
25.1299
 21
-28.561
  0
LINE
  8
0
 10
25.1299
 20
-28.561
 11
24.988
 21
-28.6943
  0
LINE
  8
0
 10
24.988
 20
-28.6943
 11
24.8305
 21
-28.8087
  0
LINE
  8
0
 10
24.8305
 20
-28.8087
 11
24.66
 21
-28.9025
  0
LINE
  8
0
 10
24.66
 20
-28.9025
 11
24.479
 21
-28.9741
  0
LINE
  8
0
 10
24.479
 20
-28.9741
 11
24.2904
 21
-29.0225
  0
LINE
  8
0
 10
24.2904
 20
-29.0225
 11
24.0973
 21
-29.0469
  0
LINE
  8
0
 10
24.0973
 20
-29.0469
 11
23.9027
 21
-29.0469
  0
ENDSEC
  0
SECTION
  2
OBJECTS
  0
DICTIONARY
  0
ENDSEC
  0
EOF
